<svg xmlns="http://www.w3.org/2000/svg" width="600" height="400" viewBox="0 0 600 400"><rect width="100%" height="100%" fill="#DDDDDD"/><path fill="#999999" d="M127.36 181.445v30.37h-5.67v-30.37zm11.15 30.37h-5.19v-21.55h3.17q1.01 0 1.33.95l.33 1.59q.57-.63 1.19-1.15.62-.53 1.32-.9.7-.38 1.51-.6t1.78-.22q2.03 0 3.35 1.1 1.31 1.1 1.96 2.93.5-1.07 1.26-1.84.76-.76 1.66-1.25.9-.48 1.92-.71t2.05-.23q1.78 0 3.17.54 1.39.55 2.33 1.6.95 1.05 1.44 2.56t.49 3.47v13.71h-5.18v-13.71q0-2.06-.91-3.1-.9-1.04-2.64-1.04-.8 0-1.48.27-.69.28-1.2.79t-.81 1.29q-.29.78-.29 1.79v13.71h-5.21v-13.71q0-2.17-.87-3.15-.87-.99-2.55-.99-1.14 0-2.11.56-.98.55-1.82 1.52zm41.37-5.57v-3.63q-2.25.11-3.78.39t-2.46.72q-.92.45-1.32 1.03-.4.59-.4 1.28 0 1.37.81 1.96t2.11.59q1.6 0 2.76-.58 1.17-.58 2.28-1.76m-10.96-11.31-.93-1.66q3.72-3.41 8.95-3.41 1.89 0 3.38.62t2.52 1.73q1.03 1.1 1.56 2.63.54 1.53.54 3.36v13.61h-2.35q-.74 0-1.14-.22-.39-.22-.63-.89l-.46-1.56q-.82.74-1.59 1.29-.78.56-1.62.94t-1.8.58q-.95.2-2.11.2-1.36 0-2.52-.37-1.15-.37-1.99-1.1-.84-.74-1.3-1.83-.47-1.09-.47-2.54 0-.82.28-1.63.27-.81.89-1.54.62-.74 1.61-1.39.98-.65 2.42-1.13 1.44-.49 3.35-.79 1.91-.31 4.37-.37v-1.26q0-2.16-.93-3.2-.92-1.04-2.66-1.04-1.26 0-2.09.29-.83.3-1.46.67-.63.36-1.15.66-.51.29-1.14.29-.55 0-.92-.28-.38-.29-.61-.66m28.77 5.58q.96 0 1.68-.26.71-.26 1.18-.73.48-.46.72-1.11t.24-1.43q0-1.59-.96-2.53-.95-.93-2.86-.93t-2.87.93q-.96.94-.96 2.53 0 .76.25 1.41.24.65.71 1.12.47.48 1.2.74.72.26 1.67.26m5.86 12.27q0-.63-.38-1.03t-1.03-.62-1.52-.33q-.87-.1-1.85-.16-.98-.05-2.02-.09t-2.02-.17q-.87.48-1.4 1.14-.54.65-.54 1.51 0 .57.29 1.06.28.49.9.85t1.61.56q.98.2 2.41.2 1.45 0 2.5-.23 1.05-.22 1.73-.6.69-.39 1-.93.32-.53.32-1.16m-1.03-21.78h6.19v1.93q0 .92-1.11 1.13l-1.93.36q.44 1.11.44 2.44 0 1.59-.64 2.89-.64 1.29-1.78 2.19-1.13.9-2.67 1.4-1.55.49-3.33.49-.63 0-1.22-.06-.59-.07-1.16-.17-1 .61-1 1.36 0 .65.59.96.6.3 1.59.43t2.25.16 2.58.13q1.32.11 2.58.37t2.25.83 1.59 1.54q.59.98.59 2.51 0 1.43-.7 2.78-.7 1.34-2.04 2.39-1.33 1.05-3.27 1.69t-4.42.64q-2.44 0-4.24-.47-1.81-.47-3.01-1.26t-1.78-1.82q-.59-1.03-.59-2.14 0-1.51.91-2.53.92-1.02 2.51-1.63-.86-.44-1.36-1.17-.51-.74-.51-1.94 0-.48.18-.99.18-.52.53-1.02.34-.51.87-.96.52-.45 1.24-.81-1.64-.88-2.58-2.35-.93-1.47-.93-3.44 0-1.6.64-2.89t1.79-2.2q1.14-.92 2.7-1.4 1.57-.48 3.42-.48 1.38 0 2.6.28t2.23.83m13.56 7.56h9.79q0-1.01-.28-1.9-.29-.89-.85-1.57-.57-.67-1.44-1.06-.88-.39-2.03-.39-2.25 0-3.54 1.29-1.29 1.28-1.65 3.63m13.23 3.13h-13.33q.12 1.66.59 2.86.46 1.21 1.21 2 .76.79 1.8 1.18 1.04.38 2.3.38t2.17-.29q.92-.29 1.6-.65t1.2-.65q.51-.3.99-.3.65 0 .97.49l1.49 1.89q-.86 1-1.93 1.69-1.07.68-2.24 1.09-1.16.41-2.37.58t-2.34.17q-2.25 0-4.18-.75t-3.36-2.21-2.25-3.61-.82-4.99q0-2.2.72-4.14.71-1.95 2.04-3.38 1.34-1.44 3.26-2.28t4.34-.84q2.03 0 3.75.65 1.73.65 2.97 1.9 1.23 1.25 1.94 3.07.7 1.81.7 4.14 0 1.18-.25 1.59t-.97.41m19.81-10.48.35 1.7q.65-.65 1.38-1.21.72-.55 1.53-.94t1.73-.61q.93-.22 2.02-.22 1.76 0 3.13.6 1.36.59 2.28 1.68.91 1.08 1.38 2.58.48 1.5.48 3.31v13.71h-5.19v-13.71q0-1.98-.9-3.06-.91-1.08-2.75-1.08-1.35 0-2.52.61-1.18.61-2.23 1.66v15.58h-5.19v-21.55h3.17q1.01 0 1.33.95m28.72-1.28q2.4 0 4.36.77 1.97.78 3.36 2.21 1.4 1.43 2.15 3.49.76 2.05.76 4.59 0 2.57-.76 4.62-.75 2.06-2.15 3.51-1.39 1.45-3.36 2.23-1.96.78-4.36.78-2.41 0-4.38-.78-1.98-.78-3.38-2.23-1.39-1.45-2.16-3.51-.76-2.05-.76-4.62 0-2.54.76-4.59.77-2.06 2.16-3.49 1.4-1.43 3.38-2.21 1.97-.77 4.38-.77m0 18.2q2.69 0 3.98-1.8 1.3-1.81 1.3-5.29 0-3.49-1.3-5.32-1.29-1.82-3.98-1.82-2.73 0-4.04 1.83-1.31 1.84-1.31 5.31 0 3.46 1.31 5.28 1.31 1.81 4.04 1.81m21.78 4.02q-2.81 0-4.31-1.59-1.51-1.58-1.51-4.38v-12.03h-2.2q-.42 0-.71-.27-.3-.28-.3-.82v-2.06l3.47-.57 1.09-5.88q.1-.42.4-.65.29-.23.75-.23h2.69v6.78h5.76v3.7h-5.76v11.67q0 1.01.49 1.58.5.57 1.36.57.48 0 .81-.12.32-.11.56-.24.25-.13.44-.24.18-.12.37-.12.23 0 .38.12.15.11.32.34l1.55 2.52q-1.13.95-2.6 1.43-1.47.49-3.05.49m30.03-5.91v-3.63q-2.25.11-3.78.39t-2.46.72q-.92.45-1.32 1.03-.4.59-.4 1.28 0 1.37.81 1.96t2.11.59q1.6 0 2.76-.58 1.17-.58 2.28-1.76m-10.96-11.31-.92-1.66q3.71-3.41 8.94-3.41 1.89 0 3.38.62t2.52 1.73q1.03 1.1 1.57 2.63.53 1.53.53 3.36v13.61h-2.35q-.73 0-1.13-.22t-.63-.89l-.47-1.56q-.81.74-1.59 1.29-.78.56-1.62.94t-1.79.58q-.96.2-2.11.2-1.37 0-2.52-.37-1.16-.37-2-1.1-.84-.74-1.3-1.83t-.46-2.54q0-.82.27-1.63t.89-1.54q.62-.74 1.61-1.39t2.42-1.13q1.44-.49 3.35-.79 1.91-.31 4.37-.37v-1.26q0-2.16-.92-3.2-.93-1.04-2.67-1.04-1.26 0-2.09.29-.83.3-1.46.67-.63.36-1.14.66-.52.29-1.15.29-.54 0-.92-.28-.38-.29-.61-.66m36.22-4.67h4.1l-8.55 21.55h-4.7l-8.55-21.55h4.29q.58 0 .97.28.39.27.52.69l4.15 11.51q.34 1.01.59 1.97.25.97.44 1.93.21-.96.47-1.93.25-.96.6-1.97l4.25-11.51q.14-.42.52-.69.38-.28.9-.28m18.23 15.98v-3.63q-2.24.11-3.78.39-1.53.28-2.45.72-.93.45-1.33 1.03-.4.59-.4 1.28 0 1.37.81 1.96t2.11.59q1.6 0 2.76-.58 1.17-.58 2.28-1.76m-10.96-11.31-.92-1.66q3.71-3.41 8.94-3.41 1.89 0 3.38.62t2.52 1.73q1.03 1.1 1.57 2.63.53 1.53.53 3.36v13.61h-2.35q-.73 0-1.13-.22t-.63-.89l-.46-1.56q-.82.74-1.6 1.29-.78.56-1.62.94t-1.79.58q-.96.2-2.11.2-1.37 0-2.52-.37-1.16-.37-2-1.1-.84-.74-1.3-1.83t-.46-2.54q0-.82.27-1.63t.89-1.54q.62-.74 1.61-1.39t2.42-1.13q1.44-.49 3.35-.79 1.92-.31 4.37-.37v-1.26q0-2.16-.92-3.2-.93-1.04-2.67-1.04-1.26 0-2.09.29-.83.3-1.46.67-.63.36-1.14.66-.52.29-1.15.29-.54 0-.92-.28-.38-.29-.61-.66m21.06-4.67h5.21v21.55h-5.21zm5.93-6.28q0 .68-.28 1.26-.27.59-.72 1.03t-1.06.71q-.61.26-1.3.26-.68 0-1.28-.26-.59-.27-1.03-.71-.45-.44-.71-1.03-.26-.58-.26-1.26 0-.69.26-1.3t.71-1.05q.44-.44 1.03-.7.6-.26 1.28-.26.69 0 1.3.26t1.06.7.72 1.05q.28.61.28 1.3m4.64-3.38h5.18v31.21h-5.18zm21.75 25.64v-3.63q-2.24.11-3.78.39-1.53.28-2.45.72-.93.45-1.33 1.03-.4.59-.4 1.28 0 1.37.81 1.96t2.11.59q1.6 0 2.76-.58 1.17-.58 2.28-1.76m-10.96-11.31-.92-1.66q3.71-3.41 8.94-3.41 1.89 0 3.38.62t2.52 1.73q1.03 1.1 1.57 2.63.53 1.53.53 3.36v13.61h-2.35q-.73 0-1.13-.22t-.63-.89l-.46-1.56q-.82.74-1.6 1.29-.78.56-1.62.94t-1.79.58q-.96.2-2.11.2-1.37 0-2.52-.37-1.16-.37-2-1.1-.84-.74-1.3-1.83t-.46-2.54q0-.82.27-1.63t.89-1.54q.62-.74 1.61-1.39t2.42-1.13q1.44-.49 3.35-.79 1.92-.31 4.37-.37v-1.26q0-2.16-.92-3.2-.93-1.04-2.67-1.04-1.26 0-2.09.29-.83.3-1.46.67-.63.36-1.14.66-.52.29-1.15.29-.54 0-.92-.28-.38-.29-.61-.66m26.08 1.63v9.66q.88 1.07 1.92 1.52 1.04.44 2.2.44 1.2 0 2.15-.43.96-.43 1.63-1.35.67-.91 1.03-2.33.35-1.42.35-3.39 0-3.55-1.17-5.13-1.18-1.59-3.38-1.59-1.49 0-2.61.68-1.11.69-2.12 1.92m0-15.96v12.31q1.3-1.37 2.89-2.17 1.59-.81 3.62-.81 1.87 0 3.37.73 1.5.74 2.56 2.11 1.07 1.38 1.63 3.33.57 1.95.57 4.39 0 2.63-.65 4.77t-1.86 3.66q-1.21 1.53-2.91 2.36-1.7.85-3.78.85-1.01 0-1.83-.2t-1.51-.56-1.27-.87q-.58-.52-1.1-1.15l-.23 1.45q-.13.55-.43.78-.31.23-.83.23h-3.42v-31.21zm18.71 0h5.19v31.21h-5.19zm14.47 17.96h9.79q0-1.01-.29-1.9-.28-.89-.85-1.57-.56-.67-1.43-1.06-.88-.39-2.03-.39-2.25 0-3.54 1.29-1.29 1.28-1.65 3.63m13.23 3.13h-13.33q.12 1.66.59 2.86.46 1.21 1.21 2 .76.79 1.8 1.18 1.04.38 2.3.38t2.17-.29q.92-.29 1.6-.65t1.19-.65q.52-.3 1-.3.65 0 .97.49l1.49 1.89q-.86 1-1.93 1.69-1.07.68-2.24 1.09-1.16.41-2.37.58t-2.34.17q-2.25 0-4.18-.75t-3.36-2.21-2.25-3.61-.82-4.99q0-2.2.72-4.14.71-1.95 2.04-3.38 1.34-1.44 3.26-2.28t4.33-.84q2.04 0 3.76.65 1.73.65 2.96 1.9 1.24 1.25 1.95 3.07.7 1.81.7 4.14 0 1.18-.25 1.59t-.97.41"/></svg>